<svg width="486" height="77" viewBox="0 0 486 77" fill="none" xmlns="http://www.w3.org/2000/svg">
<path d="M5.63636 62V15.4545H21.3636C25.0152 15.4545 28 16.1136 30.3182 17.4318C32.6515 18.7348 34.3788 20.5 35.5 22.7273C36.6212 24.9545 37.1818 27.4394 37.1818 30.1818C37.1818 32.9242 36.6212 35.4167 35.5 37.6591C34.3939 39.9015 32.6818 41.6894 30.3636 43.0227C28.0455 44.3409 25.0758 45 21.4545 45H10.1818V40H21.2727C23.7727 40 25.7803 39.5682 27.2955 38.7045C28.8106 37.8409 29.9091 36.6742 30.5909 35.2045C31.2879 33.7197 31.6364 32.0455 31.6364 30.1818C31.6364 28.3182 31.2879 26.6515 30.5909 25.1818C29.9091 23.7121 28.803 22.5606 27.2727 21.7273C25.7424 20.8788 23.7121 20.4545 21.1818 20.4545H11.2727V62H5.63636ZM45.5341 62V27.0909H50.7159V32.3636H51.0795C51.7159 30.6364 52.8674 29.2348 54.5341 28.1591C56.2008 27.0833 58.0795 26.5455 60.1705 26.5455C60.5644 26.5455 61.0568 26.553 61.6477 26.5682C62.2386 26.5833 62.6856 26.6061 62.9886 26.6364V32.0909C62.8068 32.0455 62.3902 31.9773 61.7386 31.8864C61.1023 31.7803 60.428 31.7273 59.7159 31.7273C58.0189 31.7273 56.5038 32.0833 55.1705 32.7955C53.8523 33.4924 52.8068 34.4621 52.0341 35.7045C51.2765 36.9318 50.8977 38.3333 50.8977 39.9091V62H45.5341ZM82.4659 62.7273C79.3144 62.7273 76.5492 61.9773 74.1705 60.4773C71.8068 58.9773 69.9583 56.8788 68.625 54.1818C67.3068 51.4848 66.6477 48.3333 66.6477 44.7273C66.6477 41.0909 67.3068 37.9167 68.625 35.2045C69.9583 32.4924 71.8068 30.3864 74.1705 28.8864C76.5492 27.3864 79.3144 26.6364 82.4659 26.6364C85.6174 26.6364 88.375 27.3864 90.7386 28.8864C93.1174 30.3864 94.9659 32.4924 96.2841 35.2045C97.6174 37.9167 98.2841 41.0909 98.2841 44.7273C98.2841 48.3333 97.6174 51.4848 96.2841 54.1818C94.9659 56.8788 93.1174 58.9773 90.7386 60.4773C88.375 61.9773 85.6174 62.7273 82.4659 62.7273ZM82.4659 57.9091C84.8598 57.9091 86.8295 57.2955 88.375 56.0682C89.9205 54.8409 91.0644 53.2273 91.8068 51.2273C92.5492 49.2273 92.9205 47.0606 92.9205 44.7273C92.9205 42.3939 92.5492 40.2197 91.8068 38.2045C91.0644 36.1894 89.9205 34.5606 88.375 33.3182C86.8295 32.0758 84.8598 31.4545 82.4659 31.4545C80.072 31.4545 78.1023 32.0758 76.5568 33.3182C75.0114 34.5606 73.8674 36.1894 73.125 38.2045C72.3826 40.2197 72.0114 42.3939 72.0114 44.7273C72.0114 47.0606 72.3826 49.2273 73.125 51.2273C73.8674 53.2273 75.0114 54.8409 76.5568 56.0682C78.1023 57.2955 80.072 57.9091 82.4659 57.9091ZM106.472 27.0909H111.835V64.5455C111.835 66.697 111.464 68.5606 110.722 70.1364C109.994 71.7121 108.888 72.9318 107.403 73.7955C105.934 74.6591 104.078 75.0909 101.835 75.0909C101.653 75.0909 101.472 75.0909 101.29 75.0909C101.108 75.0909 100.926 75.0909 100.744 75.0909V70.0909C100.926 70.0909 101.093 70.0909 101.244 70.0909C101.396 70.0909 101.562 70.0909 101.744 70.0909C103.381 70.0909 104.578 69.6061 105.335 68.6364C106.093 67.6818 106.472 66.3182 106.472 64.5455V27.0909ZM109.108 21.2727C108.063 21.2727 107.161 20.9167 106.403 20.2045C105.661 19.4924 105.29 18.6364 105.29 17.6364C105.29 16.6364 105.661 15.7803 106.403 15.0682C107.161 14.3561 108.063 14 109.108 14C110.153 14 111.047 14.3561 111.79 15.0682C112.547 15.7803 112.926 16.6364 112.926 17.6364C112.926 18.6364 112.547 19.4924 111.79 20.2045C111.047 20.9167 110.153 21.2727 109.108 21.2727ZM136.295 62.7273C132.932 62.7273 130.03 61.9848 127.591 60.5C125.167 59 123.295 56.9091 121.977 54.2273C120.674 51.5303 120.023 48.3939 120.023 44.8182C120.023 41.2424 120.674 38.0909 121.977 35.3636C123.295 32.6212 125.129 30.4848 127.477 28.9545C129.841 27.4091 132.598 26.6364 135.75 26.6364C137.568 26.6364 139.364 26.9394 141.136 27.5455C142.909 28.1515 144.523 29.1364 145.977 30.5C147.432 31.8485 148.591 33.6364 149.455 35.8636C150.318 38.0909 150.75 40.8333 150.75 44.0909V46.3636H123.841V41.7273H145.295C145.295 39.7576 144.902 38 144.114 36.4545C143.341 34.9091 142.235 33.6894 140.795 32.7955C139.371 31.9015 137.689 31.4545 135.75 31.4545C133.614 31.4545 131.765 31.9848 130.205 33.0455C128.659 34.0909 127.47 35.4545 126.636 37.1364C125.803 38.8182 125.386 40.6212 125.386 42.5455V45.6364C125.386 48.2727 125.841 50.5076 126.75 52.3409C127.674 54.1591 128.955 55.5455 130.591 56.5C132.227 57.4394 134.129 57.9091 136.295 57.9091C137.705 57.9091 138.977 57.7121 140.114 57.3182C141.265 56.9091 142.258 56.303 143.091 55.5C143.924 54.6818 144.568 53.6667 145.023 52.4545L150.205 53.9091C149.659 55.6667 148.742 57.2121 147.455 58.5455C146.167 59.8636 144.576 60.8939 142.682 61.6364C140.788 62.3636 138.659 62.7273 136.295 62.7273ZM173.091 62.7273C169.818 62.7273 167 61.9545 164.636 60.4091C162.273 58.8636 160.455 56.7348 159.182 54.0227C157.909 51.3106 157.273 48.2121 157.273 44.7273C157.273 41.1818 157.924 38.053 159.227 35.3409C160.545 32.6136 162.379 30.4848 164.727 28.9545C167.091 27.4091 169.848 26.6364 173 26.6364C175.455 26.6364 177.667 27.0909 179.636 28C181.606 28.9091 183.22 30.1818 184.477 31.8182C185.735 33.4545 186.515 35.3636 186.818 37.5455H181.455C181.045 35.9545 180.136 34.5455 178.727 33.3182C177.333 32.0758 175.455 31.4545 173.091 31.4545C171 31.4545 169.167 32 167.591 33.0909C166.03 34.1667 164.811 35.6894 163.932 37.6591C163.068 39.6136 162.636 41.9091 162.636 44.5455C162.636 47.2424 163.061 49.5909 163.909 51.5909C164.773 53.5909 165.985 55.1439 167.545 56.25C169.121 57.3561 170.97 57.9091 173.091 57.9091C174.485 57.9091 175.75 57.6667 176.886 57.1818C178.023 56.697 178.985 56 179.773 55.0909C180.561 54.1818 181.121 53.0909 181.455 51.8182H186.818C186.515 53.8788 185.765 55.7348 184.568 57.3864C183.386 59.0227 181.818 60.3258 179.864 61.2955C177.924 62.25 175.667 62.7273 173.091 62.7273ZM209.841 27.0909V31.6364H191.75V27.0909H209.841ZM197.023 18.7273H202.386V52C202.386 53.5152 202.606 54.6515 203.045 55.4091C203.5 56.1515 204.076 56.6515 204.773 56.9091C205.485 57.1515 206.235 57.2727 207.023 57.2727C207.614 57.2727 208.098 57.2424 208.477 57.1818C208.856 57.1061 209.159 57.0455 209.386 57L210.477 61.8182C210.114 61.9545 209.606 62.0909 208.955 62.2273C208.303 62.3788 207.477 62.4545 206.477 62.4545C204.962 62.4545 203.477 62.1288 202.023 61.4773C200.583 60.8258 199.386 59.8333 198.432 58.5C197.492 57.1667 197.023 55.4848 197.023 53.4545V18.7273Z" fill="#EEEEEE"/>
<path d="M259.455 30C259.591 28.5 259.227 27.3258 258.364 26.4773C257.5 25.6136 256.045 25.1818 254 25.1818C252.697 25.1818 251.606 25.3333 250.727 25.6364C249.864 25.9394 249.189 26.3561 248.705 26.8864C248.235 27.4167 247.939 28.0303 247.818 28.7273C247.682 29.2727 247.689 29.7727 247.841 30.2273C248.008 30.6667 248.318 31.0682 248.773 31.4318C249.242 31.7955 249.856 32.1212 250.614 32.4091C251.386 32.697 252.303 32.9545 253.364 33.1818L257 34C259.485 34.5455 261.568 35.2652 263.25 36.1591C264.947 37.0379 266.28 38.0833 267.25 39.2955C268.22 40.5076 268.856 41.8636 269.159 43.3636C269.477 44.8636 269.485 46.5 269.182 48.2727C268.667 51.3333 267.477 53.9242 265.614 56.0455C263.75 58.1667 261.318 59.7803 258.318 60.8864C255.318 61.9924 251.848 62.5455 247.909 62.5455C243.879 62.5455 240.455 61.947 237.636 60.75C234.833 59.5379 232.803 57.6894 231.545 55.2045C230.303 52.7045 230 49.5152 230.636 45.6364H242.636C242.455 47.0606 242.606 48.2576 243.091 49.2273C243.576 50.197 244.356 50.9318 245.432 51.4318C246.508 51.9318 247.848 52.1818 249.455 52.1818C250.818 52.1818 251.985 52.0152 252.955 51.6818C253.924 51.3485 254.689 50.8864 255.25 50.2955C255.811 49.7045 256.152 49.0303 256.273 48.2727C256.394 47.5758 256.273 46.9545 255.909 46.4091C255.545 45.8636 254.886 45.3712 253.932 44.9318C252.977 44.4924 251.667 44.0909 250 43.7273L245.545 42.7273C241.591 41.8182 238.606 40.3182 236.591 38.2273C234.576 36.1364 233.864 33.2727 234.455 29.6364C234.939 26.6667 236.159 24.0758 238.114 21.8636C240.083 19.6364 242.583 17.9091 245.614 16.6818C248.659 15.4394 252.03 14.8182 255.727 14.8182C259.485 14.8182 262.629 15.447 265.159 16.7045C267.705 17.9621 269.53 19.7273 270.636 22C271.758 24.2727 272.061 26.9394 271.545 30H259.455ZM276.443 25.6364L278.17 15.4545H318.625L316.898 25.6364H302.898L296.898 62H284.443L290.443 25.6364H276.443ZM315.653 62L323.381 15.4545H343.472C346.926 15.4545 349.843 16.0833 352.222 17.3409C354.6 18.5985 356.312 20.4091 357.358 22.7727C358.403 25.1364 358.653 27.9697 358.108 31.2727C357.563 34.6061 356.358 37.4167 354.494 39.7045C352.646 41.9773 350.29 43.7045 347.426 44.8864C344.578 46.053 341.381 46.6364 337.835 46.6364H325.835L327.472 36.8182H336.926C338.411 36.8182 339.714 36.6364 340.835 36.2727C341.956 35.8939 342.866 35.303 343.562 34.5C344.259 33.6818 344.714 32.6061 344.926 31.2727C345.138 29.9394 345.032 28.8561 344.608 28.0227C344.184 27.1742 343.479 26.553 342.494 26.1591C341.509 25.75 340.29 25.5455 338.835 25.5455H334.381L328.29 62H315.653ZM346.472 40.6364L354.562 62H340.835L333.017 40.6364H346.472ZM359.028 62L366.756 15.4545H400.301L398.574 25.6364H377.665L376.392 33.6364H395.574L393.847 43.8182H374.665L373.392 51.8182H394.21L392.483 62H359.028ZM398.841 62L406.568 15.4545H440.114L438.386 25.6364H417.477L416.205 33.6364H435.386L433.659 43.8182H414.477L413.205 51.8182H434.023L432.295 62H398.841ZM443.381 25.6364L445.108 15.4545H485.562L483.835 25.6364H469.835L463.835 62H451.381L457.381 25.6364H443.381Z" fill="#EEEEEE"/>
</svg>
