<svg width="277" height="48" viewBox="0 0 277 48" fill="none" xmlns="http://www.w3.org/2000/svg">
<path d="M0.0909092 5.45454V0.454544H35V5.45454H20.3636V47H14.7273V5.45454H0.0909092ZM48.3352 26V47H42.9716V0.454544H48.3352V17.5455H48.7898C49.608 15.7424 50.8352 14.3106 52.4716 13.25C54.1231 12.1742 56.3201 11.6364 59.0625 11.6364C61.4413 11.6364 63.5246 12.1136 65.3125 13.0682C67.1004 14.0076 68.4867 15.4545 69.4716 17.4091C70.4716 19.3485 70.9716 21.8182 70.9716 24.8182V47H65.608V25.1818C65.608 22.4091 64.8883 20.2652 63.4489 18.75C62.0246 17.2197 60.0473 16.4545 57.517 16.4545C55.7595 16.4545 54.1837 16.8258 52.7898 17.5682C51.411 18.3106 50.3201 19.3939 49.517 20.8182C48.7292 22.2424 48.3352 23.9697 48.3352 26ZM95.4205 47.7273C92.0568 47.7273 89.1553 46.9848 86.7159 45.5C84.2917 44 82.4205 41.9091 81.1023 39.2273C79.7992 36.5303 79.1477 33.3939 79.1477 29.8182C79.1477 26.2424 79.7992 23.0909 81.1023 20.3636C82.4205 17.6212 84.2538 15.4848 86.6023 13.9545C88.9659 12.4091 91.7235 11.6364 94.875 11.6364C96.6932 11.6364 98.4886 11.9394 100.261 12.5455C102.034 13.1515 103.648 14.1364 105.102 15.5C106.557 16.8485 107.716 18.6364 108.58 20.8636C109.443 23.0909 109.875 25.8333 109.875 29.0909V31.3636H82.9659V26.7273H104.42C104.42 24.7576 104.027 23 103.239 21.4545C102.466 19.9091 101.36 18.6894 99.9205 17.7955C98.4962 16.9015 96.8144 16.4545 94.875 16.4545C92.7386 16.4545 90.8902 16.9848 89.3295 18.0455C87.7841 19.0909 86.5947 20.4545 85.7614 22.1364C84.928 23.8182 84.5114 25.6212 84.5114 27.5455V30.6364C84.5114 33.2727 84.9659 35.5076 85.875 37.3409C86.7992 39.1591 88.0795 40.5455 89.7159 41.5C91.3523 42.4394 93.2538 42.9091 95.4205 42.9091C96.8295 42.9091 98.1023 42.7121 99.2386 42.3182C100.39 41.9091 101.383 41.303 102.216 40.5C103.049 39.6818 103.693 38.6667 104.148 37.4545L109.33 38.9091C108.784 40.6667 107.867 42.2121 106.58 43.5455C105.292 44.8636 103.701 45.8939 101.807 46.6364C99.9129 47.3636 97.7841 47.7273 95.4205 47.7273Z" fill="white"/>
<path d="M0.0909092 5.45454H-0.909091V6.45454H0.0909092V5.45454ZM0.0909092 0.454544V-0.545456H-0.909091V0.454544H0.0909092ZM35 0.454544H36V-0.545456H35V0.454544ZM35 5.45454V6.45454H36V5.45454H35ZM20.3636 5.45454V4.45454H19.3636V5.45454H20.3636ZM20.3636 47V48H21.3636V47H20.3636ZM14.7273 47H13.7273V48H14.7273V47ZM14.7273 5.45454H15.7273V4.45454H14.7273V5.45454ZM1.09091 5.45454V0.454544H-0.909091V5.45454H1.09091ZM0.0909092 1.45454H35V-0.545456H0.0909092V1.45454ZM34 0.454544V5.45454H36V0.454544H34ZM35 4.45454H20.3636V6.45454H35V4.45454ZM19.3636 5.45454V47H21.3636V5.45454H19.3636ZM20.3636 46H14.7273V48H20.3636V46ZM15.7273 47V5.45454H13.7273V47H15.7273ZM14.7273 4.45454H0.0909092V6.45454H14.7273V4.45454ZM48.3352 47V48H49.3352V47H48.3352ZM42.9716 47H41.9716V48H42.9716V47ZM42.9716 0.454544V-0.545456H41.9716V0.454544H42.9716ZM48.3352 0.454544H49.3352V-0.545456H48.3352V0.454544ZM48.3352 17.5455H47.3352V18.5455H48.3352V17.5455ZM48.7898 17.5455V18.5455H49.4341L49.7004 17.9587L48.7898 17.5455ZM52.4716 13.25L53.0155 14.0892L53.0174 14.0879L52.4716 13.25ZM65.3125 13.0682L64.8415 13.9503L64.8474 13.9534L65.3125 13.0682ZM69.4716 17.4091L68.5785 17.8591L68.5828 17.8674L69.4716 17.4091ZM70.9716 47V48H71.9716V47H70.9716ZM65.608 47H64.608V48H65.608V47ZM63.4489 18.75L62.7168 19.4313L62.7239 19.4388L63.4489 18.75ZM52.7898 17.5682L52.3197 16.6856L52.3157 16.6877L52.7898 17.5682ZM49.517 20.8182L48.6459 20.327L48.642 20.3341L49.517 20.8182ZM47.3352 26V47H49.3352V26H47.3352ZM48.3352 46H42.9716V48H48.3352V46ZM43.9716 47V0.454544H41.9716V47H43.9716ZM42.9716 1.45454H48.3352V-0.545456H42.9716V1.45454ZM47.3352 0.454544V17.5455H49.3352V0.454544H47.3352ZM48.3352 18.5455H48.7898V16.5455H48.3352V18.5455ZM49.7004 17.9587C50.4409 16.3269 51.5422 15.0441 53.0155 14.0892L51.9277 12.4108C50.1283 13.5771 48.7751 15.1579 47.8791 17.1322L49.7004 17.9587ZM53.0174 14.0879C54.4546 13.1518 56.4408 12.6364 59.0625 12.6364V10.6364C56.1993 10.6364 53.7916 11.1967 51.9258 12.4121L53.0174 14.0879ZM59.0625 12.6364C61.3056 12.6364 63.2218 13.0856 64.8415 13.9503L65.7835 12.186C63.8274 11.1417 61.577 10.6364 59.0625 10.6364V12.6364ZM64.8474 13.9534C66.4351 14.7877 67.6792 16.0742 68.5786 17.8591L70.3646 16.9591C69.2943 14.8348 67.7656 13.2275 65.7776 12.1829L64.8474 13.9534ZM68.5828 17.8674C69.4875 19.6221 69.9716 21.921 69.9716 24.8182H71.9716C71.9716 21.7154 71.4556 19.0749 70.3604 16.9508L68.5828 17.8674ZM69.9716 24.8182V47H71.9716V24.8182H69.9716ZM70.9716 46H65.608V48H70.9716V46ZM66.608 47V25.1818H64.608V47H66.608ZM66.608 25.1818C66.608 22.2388 65.8413 19.8164 64.1739 18.0612L62.7239 19.4388C63.9352 20.7139 64.608 22.5794 64.608 25.1818H66.608ZM64.1809 18.0687C62.5284 16.2932 60.262 15.4545 57.517 15.4545V17.4545C59.8327 17.4545 61.5208 18.1462 62.7168 19.4313L64.1809 18.0687ZM57.517 15.4545C55.6143 15.4545 53.8741 15.8577 52.3197 16.6856L53.2599 18.4508C54.4934 17.7938 55.9046 17.4545 57.517 17.4545V15.4545ZM52.3157 16.6877C50.7629 17.5238 49.5376 18.7457 48.646 20.327L50.3881 21.3093C51.1026 20.0421 52.0591 19.0974 53.2639 18.4487L52.3157 16.6877ZM48.642 20.3341C47.7543 21.9389 47.3352 23.8416 47.3352 26H49.3352C49.3352 24.0978 49.7041 22.546 50.3921 21.3022L48.642 20.3341ZM86.7159 45.5L86.1897 46.3504L86.196 46.3542L86.7159 45.5ZM81.1023 39.2273L80.2018 39.6623L80.2048 39.6684L81.1023 39.2273ZM81.1023 20.3636L80.201 19.9304L80.2 19.9325L81.1023 20.3636ZM86.6023 13.9545L87.1482 14.7924L87.1495 14.7915L86.6023 13.9545ZM100.261 12.5455L100.585 11.5992L100.261 12.5455ZM105.102 15.5L104.418 16.2295L104.422 16.2333L105.102 15.5ZM108.58 20.8636L109.512 20.5021L108.58 20.8636ZM109.875 31.3636V32.3636H110.875V31.3636H109.875ZM82.9659 31.3636H81.9659V32.3636H82.9659V31.3636ZM82.9659 26.7273V25.7273H81.9659V26.7273H82.9659ZM104.42 26.7273V27.7273H105.42V26.7273H104.42ZM103.239 21.4545L102.344 21.9018L102.348 21.9087L103.239 21.4545ZM99.9205 17.7955L99.3888 18.6424L99.3929 18.645L99.9205 17.7955ZM89.3295 18.0455L89.8899 18.8737L89.8916 18.8725L89.3295 18.0455ZM85.7614 22.1364L84.8653 21.6924L85.7614 22.1364ZM85.875 37.3409L84.979 37.7852L84.9836 37.7941L85.875 37.3409ZM89.7159 41.5L89.212 42.3638L89.218 42.3673L89.7159 41.5ZM99.2386 42.3182L99.5662 43.263L99.5734 43.2605L99.2386 42.3182ZM102.216 40.5L102.91 41.2201L102.917 41.2136L102.216 40.5ZM104.148 37.4545L104.418 36.4918L103.534 36.2436L103.211 37.1034L104.148 37.4545ZM109.33 38.9091L110.285 39.2055L110.589 38.224L109.6 37.9463L109.33 38.9091ZM106.58 43.5455L107.295 44.2443L107.299 44.2402L106.58 43.5455ZM101.807 46.6364L102.165 47.5699L102.172 47.5674L101.807 46.6364ZM95.4205 46.7273C92.2072 46.7273 89.4926 46.0195 87.2359 44.6458L86.196 46.3542C88.818 47.9502 91.9064 48.7273 95.4205 48.7273V46.7273ZM87.2421 44.6496C84.9855 43.2533 83.2392 41.3079 81.9997 38.7862L80.2048 39.6684C81.6017 42.5103 83.5979 44.7467 86.1897 46.3504L87.2421 44.6496ZM82.0027 38.7922C80.7767 36.2547 80.1477 33.2722 80.1477 29.8182H78.1477C78.1477 33.5157 78.8218 36.8059 80.2019 39.6623L82.0027 38.7922ZM80.1477 29.8182C80.1477 26.3646 80.7766 23.3649 82.0046 20.7947L80.2 19.9325C78.8219 22.8169 78.1477 26.1203 78.1477 29.8182H80.1477ZM82.0036 20.7969C83.2495 18.2047 84.966 16.2143 87.1482 14.7924L86.0563 13.1167C83.5416 14.7553 81.5914 17.0378 80.201 19.9304L82.0036 20.7969ZM87.1495 14.7915C89.332 13.3645 91.8945 12.6364 94.875 12.6364V10.6364C91.5524 10.6364 88.5998 11.4537 86.055 13.1176L87.1495 14.7915ZM94.875 12.6364C96.5798 12.6364 98.2661 12.9201 99.9379 13.4917L100.585 11.5992C98.7112 10.9587 96.8066 10.6364 94.875 10.6364V12.6364ZM99.9379 13.4917C101.568 14.049 103.06 14.9565 104.418 16.2295L105.786 14.7705C104.235 13.3162 102.5 12.2541 100.585 11.5992L99.9379 13.4917ZM104.422 16.2333C105.745 17.4597 106.827 19.1108 107.647 21.2252L109.512 20.5021C108.604 18.1619 107.368 16.2373 105.782 14.7667L104.422 16.2333ZM107.647 21.2252C108.453 23.3036 108.875 25.915 108.875 29.0909H110.875C110.875 25.7517 110.433 22.8783 109.512 20.5021L107.647 21.2252ZM108.875 29.0909V31.3636H110.875V29.0909H108.875ZM109.875 30.3636H82.9659V32.3636H109.875V30.3636ZM83.9659 31.3636V26.7273H81.9659V31.3636H83.9659ZM82.9659 27.7273H104.42V25.7273H82.9659V27.7273ZM105.42 26.7273C105.42 24.6212 104.998 22.7045 104.13 21.0004L102.348 21.9087C103.055 23.2955 103.42 24.8939 103.42 26.7273H105.42ZM104.133 21.0073C103.279 19.2999 102.048 17.9395 100.448 16.946L99.3929 18.645C100.672 19.4393 101.652 20.5183 102.344 21.9018L104.133 21.0073ZM100.452 16.9485C98.8453 15.94 96.973 15.4545 94.875 15.4545V17.4545C96.6558 17.4545 98.1471 17.8631 99.3888 18.6424L100.452 16.9485ZM94.875 15.4545C92.5656 15.4545 90.5152 16.0306 88.7675 17.2184L89.8916 18.8725C91.2651 17.9391 92.9117 17.4545 94.875 17.4545V15.4545ZM88.7692 17.2172C87.0796 18.3601 85.775 19.8566 84.8653 21.6924L86.6574 22.5803C87.4144 21.0525 88.4886 19.8217 89.8899 18.8737L88.7692 17.2172ZM84.8653 21.6924C83.9619 23.5158 83.5114 25.4712 83.5114 27.5455H85.5114C85.5114 25.7712 85.8942 24.1206 86.6574 22.5803L84.8653 21.6924ZM83.5114 27.5455V30.6364H85.5114V27.5455H83.5114ZM83.5114 30.6364C83.5114 33.3839 83.9847 35.7798 84.9791 37.7852L86.7709 36.8967C85.9471 35.2353 85.5114 33.1616 85.5114 30.6364H83.5114ZM84.9836 37.7941C85.9879 39.7698 87.3969 41.305 89.212 42.3638L90.2198 40.6362C88.7622 39.7859 87.6106 38.5484 86.7664 36.8878L84.9836 37.7941ZM89.218 42.3673C91.0272 43.4058 93.1054 43.9091 95.4205 43.9091V41.9091C93.4022 41.9091 91.6774 41.473 90.2138 40.6327L89.218 42.3673ZM95.4205 43.9091C96.9223 43.9091 98.3081 43.6991 99.5662 43.263L98.9111 41.3733C97.8964 41.7251 96.7368 41.9091 95.4205 41.9091V43.9091ZM99.5734 43.2605C100.851 42.8064 101.968 42.1274 102.91 41.2201L101.522 39.7799C100.797 40.4787 99.9289 41.0117 98.9039 41.3759L99.5734 43.2605ZM102.917 41.2136C103.865 40.2826 104.584 39.1394 105.084 37.8057L103.211 37.1034C102.802 38.1939 102.234 39.0811 101.515 39.7864L102.917 41.2136ZM103.877 38.4173L109.059 39.8719L109.6 37.9463L104.418 36.4918L103.877 38.4173ZM108.374 38.6127C107.876 40.2197 107.04 41.629 105.86 42.8507L107.299 44.2402C108.695 42.7952 109.692 41.1136 110.285 39.2055L108.374 38.6127ZM105.864 42.8466C104.685 44.0534 103.218 45.0092 101.442 45.7053L102.172 47.5674C104.184 46.7787 105.898 45.6739 107.295 44.2443L105.864 42.8466ZM101.448 45.7028C99.686 46.3796 97.6814 46.7273 95.4205 46.7273V48.7273C97.8867 48.7273 100.14 48.3477 102.165 47.5699L101.448 45.7028ZM117.17 47H116.17V48H117.17V47ZM117.17 0.454544V-0.545456H116.17V0.454544H117.17ZM145.898 3.25L145.415 4.12564L145.418 4.12729L145.898 3.25ZM153.693 11.2273L152.807 11.6914L152.809 11.6945L153.693 11.2273ZM153.693 36.1818L152.808 35.7162L152.807 35.7193L153.693 36.1818ZM145.852 44.2045L145.373 43.3271L145.371 43.328L145.852 44.2045ZM127.011 38.5682H126.011V39.5682H127.011V38.5682ZM140.602 37.0227L141.063 37.9103L141.066 37.909L140.602 37.0227ZM145.102 32.1818L144.194 31.7624L144.193 31.7652L145.102 32.1818ZM145.102 15.25L144.193 15.6667L144.196 15.6719L145.102 15.25ZM140.625 10.4318L141.086 9.54427V9.54427L140.625 10.4318ZM127.011 8.88636V7.88636H126.011V8.88636H127.011ZM133.67 46H117.17V48H133.67V46ZM118.17 47V0.454544H116.17V47H118.17ZM117.17 1.45454H133.807V-0.545456H117.17V1.45454ZM133.807 1.45454C138.356 1.45454 142.212 2.35928 145.415 4.12564L146.381 2.37436C142.826 0.413445 138.622 -0.545456 133.807 -0.545456V1.45454ZM145.418 4.12729C148.62 5.87939 151.079 8.39327 152.807 11.6914L154.579 10.7631C152.671 7.12187 149.933 4.31757 146.378 2.37271L145.418 4.12729ZM152.809 11.6945C154.551 14.9905 155.443 18.9741 155.443 23.6818H157.443C157.443 18.7228 156.502 14.4034 154.577 10.7601L152.809 11.6945ZM155.443 23.6818C155.443 28.4051 154.55 32.4044 152.808 35.7162L154.578 36.6474C156.503 32.9895 157.443 28.6556 157.443 23.6818H155.443ZM152.807 35.7193C151.079 39.0308 148.606 41.5596 145.373 43.3271L146.332 45.082C149.917 43.1222 152.671 40.3026 154.58 36.6444L152.807 35.7193ZM145.371 43.328C142.154 45.0946 138.266 46 133.67 46V48C138.529 48 142.763 47.0418 146.334 45.0811L145.371 43.328ZM127.011 39.5682H133.261V37.5682H127.011V39.5682ZM133.261 39.5682C136.284 39.5682 138.899 39.0333 141.063 37.9103L140.142 36.1352C138.335 37.0727 136.057 37.5682 133.261 37.5682V39.5682ZM141.066 37.909C143.275 36.754 144.925 34.9682 146.011 32.5985L144.193 31.7652C143.279 33.759 141.93 35.2006 140.139 36.1365L141.066 37.909ZM146.01 32.6013C147.106 30.2286 147.625 27.2382 147.625 23.6818H145.625C145.625 27.0649 145.128 29.7411 144.195 31.7624L146.01 32.6013ZM147.625 23.6818C147.625 20.1547 147.106 17.1862 146.009 14.8281L144.196 15.6719C145.129 17.6774 145.625 20.3301 145.625 23.6818H147.625ZM146.011 14.8333C144.926 12.4648 143.283 10.685 141.086 9.54427L140.164 11.3194C141.936 12.2393 143.279 13.6715 144.193 15.6667L146.011 14.8333ZM141.086 9.54427C138.922 8.42123 136.307 7.88636 133.284 7.88636V9.88636C136.079 9.88636 138.358 10.3818 140.164 11.3194L141.086 9.54427ZM133.284 7.88636H127.011V9.88636H133.284V7.88636ZM126.011 8.88636V38.5682H128.011V8.88636H126.011ZM163.733 47H162.733V48H163.733V47ZM163.733 0.454544V-0.545456H162.733V0.454544H163.733ZM195.097 0.454544H196.097V-0.545456H195.097V0.454544ZM195.097 8.56818V9.56818H196.097V8.56818H195.097ZM173.574 8.56818V7.56818H172.574V8.56818H173.574ZM173.574 19.6591H172.574V20.6591H173.574V19.6591ZM193.483 19.6591H194.483V18.6591H193.483V19.6591ZM193.483 27.7727V28.7727H194.483V27.7727H193.483ZM173.574 27.7727V26.7727H172.574V27.7727H173.574ZM173.574 38.8864H172.574V39.8864H173.574V38.8864ZM195.188 38.8864H196.188V37.8864H195.188V38.8864ZM195.188 47V48H196.188V47H195.188ZM164.733 47V0.454544H162.733V47H164.733ZM163.733 1.45454H195.097V-0.545456H163.733V1.45454ZM194.097 0.454544V8.56818H196.097V0.454544H194.097ZM195.097 7.56818H173.574V9.56818H195.097V7.56818ZM172.574 8.56818V19.6591H174.574V8.56818H172.574ZM173.574 20.6591H193.483V18.6591H173.574V20.6591ZM192.483 19.6591V27.7727H194.483V19.6591H192.483ZM193.483 26.7727H173.574V28.7727H193.483V26.7727ZM172.574 27.7727V38.8864H174.574V27.7727H172.574ZM173.574 39.8864H195.188V37.8864H173.574V39.8864ZM194.188 38.8864V47H196.188V38.8864H194.188ZM195.188 46H163.733V48H195.188V46ZM202.92 47H201.92V48H202.92V47ZM202.92 0.454544V-0.545456H201.92V0.454544H202.92ZM233.739 0.454544H234.739V-0.545456H233.739V0.454544ZM233.739 8.56818V9.56818H234.739V8.56818H233.739ZM212.761 8.56818V7.56818H211.761V8.56818H212.761ZM212.761 19.6591H211.761V20.6591H212.761V19.6591ZM231.693 19.6591H232.693V18.6591H231.693V19.6591ZM231.693 27.7727V28.7727H232.693V27.7727H231.693ZM212.761 27.7727V26.7727H211.761V27.7727H212.761ZM212.761 47V48H213.761V47H212.761ZM203.92 47V0.454544H201.92V47H203.92ZM202.92 1.45454H233.739V-0.545456H202.92V1.45454ZM232.739 0.454544V8.56818H234.739V0.454544H232.739ZM233.739 7.56818H212.761V9.56818H233.739V7.56818ZM211.761 8.56818V19.6591H213.761V8.56818H211.761ZM212.761 20.6591H231.693V18.6591H212.761V20.6591ZM230.693 19.6591V27.7727H232.693V19.6591H230.693ZM231.693 26.7727H212.761V28.7727H231.693V26.7727ZM211.761 27.7727V47H213.761V27.7727H211.761ZM212.761 46H202.92V48H212.761V46ZM238.585 8.56818H237.585V9.56818H238.585V8.56818ZM238.585 0.454544V-0.545456H237.585V0.454544H238.585ZM276.812 0.454544H277.812V-0.545456H276.812V0.454544ZM276.812 8.56818V9.56818H277.812V8.56818H276.812ZM262.562 8.56818V7.56818H261.562V8.56818H262.562ZM262.562 47V48H263.562V47H262.562ZM252.835 47H251.835V48H252.835V47ZM252.835 8.56818H253.835V7.56818H252.835V8.56818ZM239.585 8.56818V0.454544H237.585V8.56818H239.585ZM238.585 1.45454H276.812V-0.545456H238.585V1.45454ZM275.812 0.454544V8.56818H277.812V0.454544H275.812ZM276.812 7.56818H262.562V9.56818H276.812V7.56818ZM261.562 8.56818V47H263.562V8.56818H261.562ZM262.562 46H252.835V48H262.562V46ZM253.835 47V8.56818H251.835V47H253.835ZM252.835 7.56818H238.585V9.56818H252.835V7.56818Z" fill="white"/>
</svg>
